<svg width="32" height="33" viewBox="0 0 32 33" fill="none" xmlns="http://www.w3.org/2000/svg">
<g clip-path="url(#clip0_202_74850)">
<path d="M16 32.9458C24.8366 32.9458 32 25.7824 32 16.9458C32 8.10924 24.8366 0.945801 16 0.945801C7.16344 0.945801 0 8.10924 0 16.9458C0 25.7824 7.16344 32.9458 16 32.9458Z" fill="#F3BA2F"/>
<path d="M12.116 15.3498L16 11.4658L19.886 15.3518L22.146 13.0918L16 6.9458L9.856 13.0898L12.116 15.3498ZM6 16.9458L8.26 14.6858L10.52 16.9458L8.26 19.2058L6 16.9458ZM12.116 18.5418L16 22.4258L19.886 18.5398L22.146 20.7988L16 26.9458L9.856 20.8018L9.853 20.7988L12.116 18.5418ZM21.48 16.9458L23.74 14.6858L26 16.9458L23.74 19.2058L21.48 16.9458ZM18.292 16.9438H18.294V16.9458L16 19.2398L13.709 16.9498L13.705 16.9458L13.709 16.9428L14.11 16.5408L14.305 16.3458L16 14.6518L18.293 16.9448L18.292 16.9438Z" fill="white"/>
</g>
<defs>
<clipPath id="clip0_202_74850">
<rect width="32" height="32" fill="white" transform="translate(0 0.945801)"/>
</clipPath>
</defs>
</svg>
