<svg width="32" height="33" viewBox="0 0 32 33" fill="none" xmlns="http://www.w3.org/2000/svg">
<g clip-path="url(#clip0_202_74851)">
<path d="M16 32.9458C24.8366 32.9458 32 25.7824 32 16.9458C32 8.10924 24.8366 0.945801 16 0.945801C7.16344 0.945801 0 8.10924 0 16.9458C0 25.7824 7.16344 32.9458 16 32.9458Z" fill="#F7931A"/>
<path d="M23.032 14.9658C23.346 12.8698 21.749 11.7428 19.567 10.9908L20.275 8.1508L18.547 7.7208L17.857 10.4858C17.403 10.3718 16.937 10.2658 16.472 10.1598L17.167 7.3768L15.439 6.9458L14.731 9.7848C14.355 9.6988 13.985 9.6148 13.627 9.5248L13.629 9.5158L11.245 8.9208L10.785 10.7668C10.785 10.7668 12.068 11.0608 12.041 11.0788C12.741 11.2538 12.867 11.7168 12.846 12.0848L12.04 15.3198C12.088 15.3318 12.15 15.3498 12.22 15.3768L12.037 15.3318L10.907 19.8638C10.821 20.0758 10.604 20.3948 10.114 20.2738C10.132 20.2988 8.858 19.9608 8.858 19.9608L8 21.9388L10.25 22.4998C10.668 22.6048 11.078 22.7148 11.481 22.8178L10.766 25.6898L12.493 26.1198L13.201 23.2798C13.673 23.4068 14.131 23.5248 14.579 23.6368L13.873 26.4648L15.601 26.8948L16.316 24.0288C19.264 24.5868 21.48 24.3618 22.413 21.6958C23.165 19.5498 22.376 18.3108 20.825 17.5038C21.955 17.2438 22.805 16.5008 23.032 14.9658ZM19.082 20.5038C18.549 22.6508 14.934 21.4898 13.762 21.1988L14.712 17.3938C15.884 17.6868 19.641 18.2658 19.082 20.5038ZM19.617 14.9348C19.13 16.8878 16.122 15.8948 15.147 15.6518L16.007 12.2018C16.982 12.4448 20.125 12.8978 19.617 14.9348Z" fill="white"/>
</g>
<defs>
<clipPath id="clip0_202_74851">
<rect width="32" height="32" fill="white" transform="translate(0 0.945801)"/>
</clipPath>
</defs>
</svg>
