<svg width="32" height="33" viewBox="0 0 32 33" fill="none" xmlns="http://www.w3.org/2000/svg">
<g clip-path="url(#clip0_202_74853)">
<path d="M16 32.9458C24.8366 32.9458 32 25.7824 32 16.9458C32 8.10924 24.8366 0.945801 16 0.945801C7.16344 0.945801 0 8.10924 0 16.9458C0 25.7824 7.16344 32.9458 16 32.9458Z" fill="#EF0027"/>
<path d="M21.432 10.6018L7 7.9458L14.595 27.0578L25.178 14.1638L21.432 10.6018ZM21.2 11.7718L23.408 13.8708L17.37 14.9638L21.2 11.7718ZM16.058 14.7448L9.694 9.4668L20.096 11.3808L16.058 14.7448ZM15.605 15.6788L14.567 24.2588L8.972 10.1758L15.605 15.6778V15.6788ZM16.565 16.1338L23.252 14.9238L15.582 24.2668L16.565 16.1338Z" fill="white"/>
</g>
<defs>
<clipPath id="clip0_202_74853">
<rect width="32" height="32" fill="white" transform="translate(0 0.945801)"/>
</clipPath>
</defs>
</svg>
