<svg width="37" height="37" viewBox="0 0 37 37" fill="none" xmlns="http://www.w3.org/2000/svg">
<g clip-path="url(#clip0_3276_1493)">
<path d="M25.4734 21.6296L29.5504 25.7036L18.5209 36.7331L7.49135 25.7051L11.5669 21.6296L18.5209 28.6196L25.4734 21.6296ZM32.4289 14.6756L36.5374 18.7496L32.4649 22.8236L28.3894 18.7496L32.4289 14.6756ZM18.5209 14.6756L22.5949 18.7136L18.5194 22.7891L14.4454 18.7496L18.5209 14.6756ZM4.61135 14.6756L8.65235 18.7496L4.61435 22.7876L0.537354 18.7496L4.61135 14.6756ZM18.5224 0.767578L29.5474 11.7596L25.4719 15.8321L18.5224 8.87958L11.5684 15.8696L7.49285 11.7956L18.5224 0.767578Z" fill="#F7B91A"/>
</g>
<defs>
<clipPath id="clip0_3276_1493">
<rect width="36" height="36" fill="white" transform="translate(0.537354 0.75)"/>
</clipPath>
</defs>
</svg>
