<svg width="36" height="37" viewBox="0 0 36 37" fill="none" xmlns="http://www.w3.org/2000/svg">
  <path d="M1.5 9.9375C1.5 7.45222 3.51472 5.4375 6 5.4375H30C32.4853 5.4375 34.5 7.45222 34.5 9.9375C34.5 10.7659 33.8284 11.4375 33 11.4375H27C22.8579 11.4375 19.5 14.7954 19.5 18.9375C19.5 23.0796 22.8579 26.4375 27 26.4375H33C33.8284 26.4375 34.5 27.1091 34.5 27.9375C34.5 30.4228 32.4853 32.4375 30 32.4375H6C3.51472 32.4375 1.5 30.4228 1.5 27.9375V9.9375Z" fill="#23262F"/>
  <path fillRule="evenodd" clipRule="evenodd" d="M27 14.4375H33C33.8284 14.4375 34.5 15.1091 34.5 15.9375V21.9375C34.5 22.7659 33.8284 23.4375 33 23.4375H27C24.5147 23.4375 22.5 21.4228 22.5 18.9375C22.5 16.4522 24.5147 14.4375 27 14.4375ZM27 20.4375C27.8284 20.4375 28.5 19.7659 28.5 18.9375C28.5 18.1091 27.8284 17.4375 27 17.4375C26.1716 17.4375 25.5 18.1091 25.5 18.9375C25.5 19.7659 26.1716 20.4375 27 20.4375Z" fill="#23262F"/>
</svg>
