<svg width="25" height="25" viewBox="0 0 25 25" fill="none" xmlns="http://www.w3.org/2000/svg">
<path d="M12.0234 24.25C18.6509 24.25 24.0234 18.8774 24.0234 12.25C24.0234 5.62258 18.6509 0.25 12.0234 0.25C5.39602 0.25 0.0234375 5.62258 0.0234375 12.25C0.0234375 18.8774 5.39602 24.25 12.0234 24.25Z" fill="#EF0027"/>
<path d="M16.0974 7.492L5.27344 5.5L10.9697 19.834L18.9069 10.1635L16.0974 7.492ZM15.9234 8.3695L17.5794 9.94375L13.0509 10.7635L15.9234 8.3695V8.3695ZM12.0669 10.5992L7.29394 6.64075L15.0954 8.07625L12.0669 10.5992V10.5992ZM11.7272 11.2997L10.9487 17.7347L6.75244 7.1725L11.7272 11.299V11.2997ZM12.4472 11.641L17.4624 10.7335L11.7099 17.7407L12.4472 11.641Z" fill="white"/>
</svg>
