<svg width="25" height="25" viewBox="0 0 25 25" fill="none" xmlns="http://www.w3.org/2000/svg">
<g clip-path="url(#clip0_3276_1468)">
<path d="M12.7666 24.75C19.394 24.75 24.7666 19.3774 24.7666 12.75C24.7666 6.12258 19.394 0.75 12.7666 0.75C6.13918 0.75 0.766602 6.12258 0.766602 12.75C0.766602 19.3774 6.13918 24.75 12.7666 24.75Z" fill="#26A17B"/>
<path fillRule="evenodd" clipRule="evenodd" d="M14.2082 13.7873V13.7858C14.1257 13.7918 13.7004 13.8173 12.7517 13.8173C11.9942 13.8173 11.4609 13.7948 11.2734 13.7858V13.788C8.35745 13.6598 6.18095 13.152 6.18095 12.5445C6.18095 11.9378 8.35745 11.43 11.2734 11.2995V13.2825C11.4639 13.296 12.0099 13.3283 12.7644 13.3283C13.6697 13.3283 14.1234 13.2908 14.2082 13.2833V11.301C17.1182 11.4308 19.2894 11.9385 19.2894 12.5445C19.2894 13.152 17.1182 13.6583 14.2082 13.7873ZM14.2082 11.0948V9.32026H18.2687V6.61426H7.21295V9.32026H11.2734V11.094C7.97345 11.2455 5.4917 11.8995 5.4917 12.6825C5.4917 13.4655 7.97345 14.1188 11.2734 14.271V19.9575H14.2082V14.2695C17.5029 14.118 19.9787 13.4648 19.9787 12.6825C19.9787 11.9003 17.5029 11.247 14.2082 11.0948Z" fill="white"/>
</g>
<defs>
<clipPath id="clip0_3276_1468">
<rect width="24" height="24" fill="white" transform="translate(0.766602 0.75)"/>
</clipPath>
</defs>
</svg>
