<svg width="20" height="22" viewBox="0 0 20 22" fill="none" xmlns="http://www.w3.org/2000/svg">
<g clip-path="url(#clip0_119_67275)">
<path d="M19.5364 0.324707L10.9546 7.43662L12.5504 3.24537L19.5364 0.324707Z" fill="#E17726"/>
<path d="M0.483633 0.333008L7.4509 3.2458L8.96621 7.492L0.483633 0.333008ZM16.0828 15.4497L19.8758 15.5305L18.5502 20.5742L13.9218 19.147L16.0828 15.4497ZM3.91707 15.4497L6.06996 19.147L1.44941 20.5743L0.131836 15.5305L3.91707 15.4497Z" fill="#E27625"/>
<path d="M8.76021 6.41046L8.91521 12.0177L4.27686 11.7814L5.59623 9.55206L5.61295 9.53063L8.76021 6.41046ZM11.1917 6.3479L14.387 9.5308L14.4036 9.55215L15.7229 11.7815L11.0856 12.0177L11.1917 6.3479ZM6.20584 15.466L8.7385 17.6762L5.79646 19.267L6.20584 15.466ZM13.7946 15.4657L14.1954 19.2671L11.2616 17.676L13.7946 15.4657Z" fill="#E27625"/>
<path d="M11.3265 17.4678L14.3036 19.0823L11.5343 20.5563L11.5631 19.5821L11.3265 17.4678ZM8.67285 17.4685L8.44559 19.5662L8.46426 20.5552L5.68848 19.0823L8.67285 17.4685Z" fill="#D5BFB2"/>
<path d="M7.81309 12.7495L8.59105 14.5807L5.94238 13.7117L7.81309 12.7495ZM12.1869 12.7497L14.0664 13.7117L11.4091 14.5804L12.1869 12.7497Z" fill="#233447"/>
<path d="M6.40844 15.4474L5.98031 19.3884L3.68555 15.5335L6.40844 15.4474ZM13.592 15.4474L16.315 15.5335L14.0116 19.3885L13.592 15.4474ZM15.7902 11.5586L13.8085 13.8206L12.2806 13.0386L11.5491 14.7609L11.0696 11.7991L15.7902 11.5586ZM4.20914 11.5586L8.93062 11.7991L8.45102 14.7609L7.71938 13.0388L6.19961 13.8206L4.20914 11.5586Z" fill="#CC6228"/>
<path d="M4.07568 11.0944L6.31771 13.6425L6.39537 16.158L4.07568 11.0944ZM15.927 11.0898L13.6031 16.1625L13.6906 13.6425L15.927 11.0898ZM8.82107 11.2496L8.91131 11.8857L9.13428 13.4705L8.99092 18.3376L8.31318 14.4277L8.31295 14.3873L8.82107 11.2496ZM11.1782 11.2408L11.6876 14.3873L11.6874 14.4277L11.0079 18.3474L10.9811 17.367L10.8751 13.4416L11.1782 11.2408Z" fill="#E27525"/>
<path d="M13.8898 13.5413L13.814 15.7268L11.4488 17.7907L10.9707 17.4123L11.5066 14.3205L13.8898 13.5413ZM6.11865 13.5413L8.49357 14.3205L9.02951 17.4123L8.55139 17.7907L6.18615 15.7267L6.11865 13.5413Z" fill="#F5841F"/>
<path d="M5.23584 18.5999L8.26178 20.2057L8.24897 19.5199L8.50217 19.271H11.497L11.7594 19.519L11.74 20.2043L14.7468 18.6039L13.2837 19.958L11.5145 21.3189H8.47787L6.7099 19.9524L5.23584 18.5999Z" fill="#C0AC9D"/>
<path d="M11.1096 17.2542L11.5375 17.5927L11.7882 19.833L11.4254 19.49H8.57566L8.21973 19.84L8.46223 17.5929L8.8902 17.2542H11.1096Z" fill="#161616"/>
<path d="M18.9698 0.521484L20 3.98272L19.3566 7.48246L19.8148 7.87822L19.1948 8.40795L19.6608 8.81097L19.0438 9.44019L19.4226 9.7474L18.4174 11.0622L14.2948 9.71774L14.2591 9.6963L11.2882 6.88947L18.9698 0.521484ZM1.03016 0.521484L8.71187 6.88947L5.74094 9.6963L5.70523 9.71774L1.58258 11.0622L0.577422 9.7474L0.955859 9.44045L0.339297 8.81097L0.804297 8.40839L0.175078 7.87717L0.650469 7.48115L0 3.9829L1.03016 0.521484Z" fill="#763E1A"/>
<path d="M14.0931 9.42375L18.4613 10.8482L19.8805 15.7469H16.1364L13.5567 15.7833L15.4328 11.6876L14.0931 9.42375ZM5.90689 9.42375L4.56697 11.6876L6.4433 15.7833L3.86478 15.7469H0.127441L1.53861 10.8482L5.90689 9.42375ZM12.7644 3.22192L11.5426 6.91784L11.2833 11.9106L11.1841 13.4755L11.1762 17.4732H8.82377L8.81611 13.483L8.71658 11.9093L8.45721 6.91784L7.23557 3.22192H12.7644Z" fill="#F5841F"/>
</g>
<defs>
<clipPath id="clip0_119_67275">
<rect width="20" height="21" fill="white" transform="translate(0 0.324707)"/>
</clipPath>
</defs>
</svg>
