<svg width="132" height="131" viewBox="0 0 132 131" fill="none" xmlns="http://www.w3.org/2000/svg">
<g clip-path="url(#clip0_1_19699)">
<path d="M22.3333 21.8333H55.0833V54.5833H22.3333V21.8333ZM109.667 21.8333V54.5833H76.9167V21.8333H109.667ZM76.9167 81.875H87.8333V70.9583H76.9167V60.0417H87.8333V70.9583H98.75V60.0417H109.667V70.9583H98.75V81.875H109.667V98.25H98.75V109.167H87.8333V98.25H71.4583V109.167H60.5417V87.3333H76.9167V81.875ZM87.8333 81.875V98.25H98.75V81.875H87.8333ZM22.3333 109.167V76.4167H55.0833V109.167H22.3333ZM33.25 32.75V43.6667H44.1667V32.75H33.25ZM87.8333 32.75V43.6667H98.75V32.75H87.8333ZM33.25 87.3333V98.25H44.1667V87.3333H33.25ZM22.3333 60.0417H33.25V70.9583H22.3333V60.0417ZM49.625 60.0417H71.4583V81.875H60.5417V70.9583H49.625V60.0417ZM60.5417 32.75H71.4583V54.5833H60.5417V32.75ZM11.4167 10.9167V32.75H0.5V10.9167C0.5 8.02139 1.65015 5.24469 3.69742 3.19742C5.74469 1.15015 8.52139 0 11.4167 0L33.25 0V10.9167H11.4167ZM120.583 0C123.479 0 126.255 1.15015 128.303 3.19742C130.35 5.24469 131.5 8.02139 131.5 10.9167V32.75H120.583V10.9167H98.75V0H120.583ZM11.4167 98.25V120.083H33.25V131H11.4167C8.52139 131 5.74469 129.85 3.69742 127.803C1.65015 125.755 0.5 122.979 0.5 120.083V98.25H11.4167ZM120.583 120.083V98.25H131.5V120.083C131.5 122.979 130.35 125.755 128.303 127.803C126.255 129.85 123.479 131 120.583 131H98.75V120.083H120.583Z" fill="black"/>
</g>
<defs>
<clipPath id="clip0_1_19699">
<rect width="131" height="131" fill="white" transform="translate(0.5)"/>
</clipPath>
</defs>
</svg>
