<svg width="21" height="20" viewBox="0 0 21 20" fill="none" xmlns="http://www.w3.org/2000/svg">
<g id="Group">
<path id="Vector" d="M5.45898 7.667C5.45898 6.95967 5.73997 6.28131 6.24013 5.78115C6.74029 5.28099 7.41865 5 8.12598 5H16.792C17.1422 5 17.489 5.06898 17.8126 5.20301C18.1362 5.33704 18.4302 5.53349 18.6778 5.78115C18.9255 6.0288 19.1219 6.32281 19.256 6.64638C19.39 6.96996 19.459 7.31676 19.459 7.667V16.333C19.459 16.6832 19.39 17.03 19.256 17.3536C19.1219 17.6772 18.9255 17.9712 18.6778 18.2189C18.4302 18.4665 18.1362 18.663 17.8126 18.797C17.489 18.931 17.1422 19 16.792 19H8.12598C7.77575 19 7.42894 18.931 7.10537 18.797C6.78179 18.663 6.48778 18.4665 6.24013 18.2189C5.99248 17.9712 5.79603 17.6772 5.662 17.3536C5.52797 17.03 5.45898 16.6832 5.45898 16.333V7.667Z" stroke="#777E91" stroke-width="2" stroke-linecap="round" stroke-linejoin="round"/>
<path id="Vector_2" d="M2.47098 14.737C2.16398 14.5626 1.90863 14.31 1.73088 14.0049C1.55314 13.6998 1.45932 13.3531 1.45898 13V3C1.45898 1.9 2.35898 1 3.45898 1H13.459C14.209 1 14.617 1.385 14.959 2" stroke="#777E91" stroke-width="2" stroke-linecap="round" stroke-linejoin="round"/>
</g>
</svg>
