<svg width="24" height="25" viewBox="0 0 24 25" fill="none" xmlns="http://www.w3.org/2000/svg">
<g clip-path="url(#clip0_119_67289)">
<path d="M4.91302 7.76021C8.82802 3.92921 15.173 3.92921 19.087 7.76021L19.558 8.22121C19.6045 8.26625 19.6415 8.32017 19.6668 8.37978C19.692 8.43939 19.705 8.50347 19.705 8.56821C19.705 8.63295 19.692 8.69703 19.6668 8.75664C19.6415 8.81625 19.6045 8.87018 19.558 8.91521L17.947 10.4922C17.9238 10.5155 17.8962 10.534 17.8658 10.5466C17.8355 10.5592 17.8029 10.5657 17.77 10.5657C17.7371 10.5657 17.7046 10.5592 17.6742 10.5466C17.6438 10.534 17.6162 10.5155 17.593 10.4922L16.944 9.85821C14.214 7.18521 9.78702 7.18521 7.05702 9.85821L6.36302 10.5382C6.31545 10.5843 6.25179 10.6101 6.18552 10.6101C6.11926 10.6101 6.0556 10.5843 6.00802 10.5382L4.39702 8.96021C4.35029 8.91541 4.3131 8.86162 4.2877 8.80207C4.26229 8.74252 4.2492 8.67845 4.2492 8.61371C4.2492 8.54897 4.26229 8.4849 4.2877 8.42535C4.3131 8.36581 4.35029 8.31201 4.39702 8.26721L4.91302 7.76021ZM22.419 11.0232L23.853 12.4272C23.8995 12.4722 23.9365 12.5262 23.9618 12.5858C23.987 12.6454 24 12.7095 24 12.7742C24 12.839 23.987 12.903 23.9618 12.9626C23.9365 13.0223 23.8995 13.0762 23.853 13.1212L17.387 19.4522C17.2919 19.5442 17.1648 19.5956 17.0325 19.5956C16.9002 19.5956 16.7731 19.5442 16.678 19.4522L12.09 14.9592C12.0664 14.9356 12.0344 14.9224 12.001 14.9224C11.9677 14.9224 11.9356 14.9356 11.912 14.9592L7.32302 19.4522C7.22792 19.5442 7.10081 19.5956 6.96852 19.5956C6.83624 19.5956 6.70913 19.5442 6.61402 19.4522L0.147024 13.1212C0.100512 13.0762 0.0635293 13.0223 0.0382723 12.9626C0.0130153 12.903 0 12.839 0 12.7742C0 12.7095 0.0130153 12.6454 0.0382723 12.5858C0.0635293 12.5262 0.100512 12.4722 0.147024 12.4272L1.58102 11.0232C1.67613 10.9313 1.80324 10.8799 1.93552 10.8799C2.06781 10.8799 2.19492 10.9313 2.29002 11.0232L6.87902 15.5162C6.92902 15.5642 7.00802 15.5642 7.05702 15.5162L11.646 11.0232C11.7411 10.9313 11.8682 10.8799 12.0005 10.8799C12.1328 10.8799 12.2599 10.9313 12.355 11.0232L16.944 15.5162C16.994 15.5642 17.072 15.5642 17.122 15.5162L21.711 11.0232C21.8057 10.9309 21.9328 10.8792 22.065 10.8792C22.1973 10.8792 22.3243 10.9309 22.419 11.0232Z" fill="#496DF9"/>
</g>
<defs>
<clipPath id="clip0_119_67289">
<rect width="24" height="24" fill="white" transform="translate(0 0.241211)"/>
</clipPath>
</defs>
</svg>
