<svg width="19" height="18" viewBox="0 0 19 18" fill="none" xmlns="http://www.w3.org/2000/svg">
<path d="M17.2734 0H2.27344C1.87561 0 1.49408 0.158035 1.21278 0.43934C0.931473 0.720644 0.773438 1.10218 0.773438 1.5V16.5C0.773438 16.8978 0.931473 17.2794 1.21278 17.5607C1.49408 17.842 1.87561 18 2.27344 18H17.2734C17.6713 18 18.0528 17.842 18.3341 17.5607C18.6154 17.2794 18.7734 16.8978 18.7734 16.5V1.5C18.7734 1.10218 18.6154 0.720644 18.3341 0.43934C18.0528 0.158035 17.6713 0 17.2734 0ZM15.0234 9.75H10.5234V14.25C10.5234 14.4489 10.4444 14.6397 10.3038 14.7803C10.1631 14.921 9.97235 15 9.77344 15C9.57452 15 9.38376 14.921 9.24311 14.7803C9.10246 14.6397 9.02344 14.4489 9.02344 14.25V9.75H4.52344C4.32453 9.75 4.13376 9.67098 3.99311 9.53033C3.85246 9.38968 3.77344 9.19891 3.77344 9C3.77344 8.80109 3.85246 8.61032 3.99311 8.46967C4.13376 8.32902 4.32453 8.25 4.52344 8.25H9.02344V3.75C9.02344 3.55109 9.10246 3.36032 9.24311 3.21967C9.38376 3.07902 9.57452 3 9.77344 3C9.97235 3 10.1631 3.07902 10.3038 3.21967C10.4444 3.36032 10.5234 3.55109 10.5234 3.75V8.25H15.0234C15.2224 8.25 15.4131 8.32902 15.5538 8.46967C15.6944 8.61032 15.7734 8.80109 15.7734 9C15.7734 9.19891 15.6944 9.38968 15.5538 9.53033C15.4131 9.67098 15.2224 9.75 15.0234 9.75Z" fill="white"/>
</svg>
