<svg width="23" height="23" viewBox="0 0 23 23" fill="none" xmlns="http://www.w3.org/2000/svg">
<path fill-rule="evenodd" clip-rule="evenodd" d="M16.4353 1.87255C16.2169 1.52364 15.8952 1.2515 15.5149 1.09399C15.1346 0.93649 14.7147 0.901467 14.3136 0.9938L11.4668 1.64772C11.175 1.71477 10.8718 1.71477 10.5801 1.64772L7.73325 0.9938C7.33214 0.901467 6.91222 0.93649 6.53194 1.09399C6.15166 1.2515 5.82995 1.52364 5.61159 1.87255L4.05992 4.34888C3.90159 4.60222 3.68784 4.81597 3.4345 4.97588L0.95817 6.52755C0.609865 6.74572 0.338117 7.06691 0.180648 7.44654C0.0231788 7.82617 -0.012201 8.2454 0.0794194 8.64605L0.733336 11.496C0.80015 11.7873 0.80015 12.0899 0.733336 12.3811L0.0794194 15.2295C-0.0125571 15.6304 0.0226447 16.05 0.180131 16.43C0.337617 16.8099 0.609564 17.1314 0.95817 17.3496L3.4345 18.9013C3.68784 19.0596 3.90159 19.2734 4.0615 19.5267L5.61317 22.003C6.05967 22.7171 6.9115 23.0702 7.73325 22.8818L10.5801 22.2279C10.8718 22.1608 11.175 22.1608 11.4668 22.2279L14.3152 22.8818C14.7161 22.9738 15.1356 22.9386 15.5156 22.7811C15.8955 22.6236 16.217 22.3517 16.4353 22.003L17.9869 19.5267C18.1453 19.2734 18.359 19.0596 18.6123 18.9013L21.0903 17.3496C21.4389 17.1311 21.7107 16.8092 21.8679 16.429C22.0251 16.0487 22.0599 15.6289 21.9674 15.228L21.3151 12.3811C21.248 12.0894 21.248 11.7862 21.3151 11.4945L21.969 8.64605C22.0611 8.24533 22.0262 7.82587 21.869 7.44593C21.7118 7.066 21.4402 6.74445 21.0918 6.52597L18.6139 4.9743C18.3609 4.81568 18.1471 4.60186 17.9885 4.34888L16.4353 1.87255ZM15.6388 8.40697C15.7368 8.22689 15.761 8.01584 15.7065 7.81824C15.652 7.62063 15.523 7.45187 15.3466 7.34747C15.1702 7.24306 14.9602 7.21115 14.7607 7.25844C14.5612 7.30574 14.3879 7.42855 14.2772 7.60105L10.1368 14.6089L7.63667 12.2149C7.5625 12.1387 7.47375 12.0783 7.37572 12.0372C7.27769 11.9961 7.17238 11.9751 7.06608 11.9756C6.95977 11.976 6.85465 11.9979 6.75698 12.0399C6.65931 12.0818 6.57109 12.143 6.49759 12.2198C6.42409 12.2966 6.36681 12.3875 6.32916 12.4869C6.29152 12.5863 6.27428 12.6923 6.27848 12.7985C6.28268 12.9047 6.30823 13.009 6.3536 13.1051C6.39898 13.2013 6.46325 13.2873 6.54259 13.358L9.76309 16.444C9.84928 16.5264 9.95298 16.5883 10.0664 16.625C10.1799 16.6617 10.3002 16.6723 10.4183 16.656C10.5365 16.6397 10.6494 16.597 10.7487 16.5309C10.848 16.4649 10.9311 16.3772 10.9918 16.2745L15.6388 8.40697Z" fill="#F2C94C"/>
</svg>
