<svg width="37" height="37" viewBox="0 0 37 37" fill="none" xmlns="http://www.w3.org/2000/svg">
<path d="M3.7666 30.75H33.7666V33.75H3.7666V30.75ZM6.7666 18.75H9.7666V29.25H6.7666V18.75ZM14.2666 18.75H17.2666V29.25H14.2666V18.75ZM20.2666 18.75H23.2666V29.25H20.2666V18.75ZM27.7666 18.75H30.7666V29.25H27.7666V18.75ZM3.7666 11.25L18.7666 3.75L33.7666 11.25V17.25H3.7666V11.25ZM18.7666 12.75C19.1644 12.75 19.546 12.592 19.8273 12.3107C20.1086 12.0294 20.2666 11.6478 20.2666 11.25C20.2666 10.8522 20.1086 10.4706 19.8273 10.1893C19.546 9.90804 19.1644 9.75 18.7666 9.75C18.3688 9.75 17.9872 9.90804 17.7059 10.1893C17.4246 10.4706 17.2666 10.8522 17.2666 11.25C17.2666 11.6478 17.4246 12.0294 17.7059 12.3107C17.9872 12.592 18.3688 12.75 18.7666 12.75Z" fill="black"/>
</svg>
