<svg width="45" height="45" viewBox="0 0 45 45" fill="none" xmlns="http://www.w3.org/2000/svg">
<rect x="0.462891" y="0.624268" width="44" height="44" rx="22" fill="#777E91"/>
<path fill-rule="evenodd" clip-rule="evenodd" d="M22.4629 13.6243C20.0759 13.6243 17.7868 14.5725 16.0989 16.2603C14.4111 17.9481 13.4629 20.2373 13.4629 22.6243C13.4629 25.0112 14.4111 27.3004 16.0989 28.9882C17.7868 30.6761 20.0759 31.6243 22.4629 31.6243H26.9629C28.3609 31.6243 29.0599 31.6243 29.6109 31.3963C29.975 31.2455 30.3058 31.0245 30.5845 30.7458C30.8631 30.4672 31.0841 30.1364 31.2349 29.7723C31.4629 29.2213 31.4629 28.5223 31.4629 27.1243V22.6243C31.4629 20.2373 30.5147 17.9481 28.8269 16.2603C27.139 14.5725 24.8498 13.6243 22.4629 13.6243ZM18.4629 21.6243C18.4629 21.3591 18.5682 21.1047 18.7558 20.9172C18.9433 20.7296 19.1977 20.6243 19.4629 20.6243H25.4629C25.7281 20.6243 25.9825 20.7296 26.17 20.9172C26.3575 21.1047 26.4629 21.3591 26.4629 21.6243C26.4629 21.8895 26.3575 22.1438 26.17 22.3314C25.9825 22.5189 25.7281 22.6243 25.4629 22.6243H19.4629C19.1977 22.6243 18.9433 22.5189 18.7558 22.3314C18.5682 22.1438 18.4629 21.8895 18.4629 21.6243ZM21.4629 25.6243C21.4629 25.3591 21.5682 25.1047 21.7558 24.9172C21.9433 24.7296 22.1977 24.6243 22.4629 24.6243H25.4629C25.7281 24.6243 25.9825 24.7296 26.17 24.9172C26.3575 25.1047 26.4629 25.3591 26.4629 25.6243C26.4629 25.8895 26.3575 26.1438 26.17 26.3314C25.9825 26.5189 25.7281 26.6243 25.4629 26.6243H22.4629C22.1977 26.6243 21.9433 26.5189 21.7558 26.3314C21.5682 26.1438 21.4629 25.8895 21.4629 25.6243Z" fill="white"/>
</svg>
