<svg width="25" height="24" viewBox="0 0 25 24" fill="none" xmlns="http://www.w3.org/2000/svg">
  <g id="simple-icons:binance" clip-path="url(#clip0_1_32213)">
    <path id="Vector" d="M17.3193 13.9197L20.0373 16.6357L12.6843 23.9887L5.33131 16.6367L8.04831 13.9197L12.6843 18.5797L17.3193 13.9197ZM21.9563 9.28372L24.6953 11.9997L21.9803 14.7157L19.2633 11.9997L21.9563 9.28372ZM12.6843 9.28372L15.4003 11.9757L12.6833 14.6927L9.96731 11.9997L12.6843 9.28372ZM3.41131 9.28372L6.10531 11.9997L3.41331 14.6917L0.695312 11.9997L3.41131 9.28372ZM12.6853 0.0117188L20.0353 7.33972L17.3183 10.0547L12.6853 5.41972L8.04931 10.0797L5.33231 7.36372L12.6853 0.0117188Z" fill="#23262F"/>
  </g>
  <defs>
    <clipPath id="clip0_1_32213">
      <rect width="24" height="24" fill="white" transform="translate(0.695312)"/>
    </clipPath>
  </defs>
</svg>
