<svg width="25" height="25" viewBox="0 0 25 25" fill="none" xmlns="http://www.w3.org/2000/svg">
<path d="M18.8074 7.17957H18.4174C18.0874 5.26957 16.5274 3.80957 14.6574 3.80957H4.82735C3.56735 3.80957 2.53735 4.90957 2.53735 6.24957C2.53735 6.33957 2.55735 6.41957 2.56735 6.50957C2.55735 6.54957 2.53735 6.58957 2.53735 6.63957V17.9396C2.53735 19.9996 4.21735 21.6796 6.26735 21.6796H18.8074C20.8574 21.6796 22.5374 19.9996 22.5374 17.9396V10.9096C22.5374 8.84957 20.8574 7.17957 18.8074 7.17957ZM18.2474 15.6896C17.5574 15.6896 16.9874 15.1296 16.9874 14.4296C16.9874 13.7296 17.5574 13.1596 18.2474 13.1596C18.9474 13.1596 19.5174 13.7296 19.5174 14.4296C19.5174 15.1296 18.9474 15.6896 18.2474 15.6896ZM4.82735 5.30957H14.6574C15.7074 5.30957 16.5874 6.09957 16.8774 7.17957H4.82735C4.38735 7.17957 4.03735 6.75957 4.03735 6.24957C4.03735 5.72957 4.38735 5.30957 4.82735 5.30957Z" fill="white"/>
</svg>
