<svg width="22" height="22" viewBox="0 0 22 22" fill="none" xmlns="http://www.w3.org/2000/svg">
<path fill-rule="evenodd" clip-rule="evenodd" d="M16.4118 0.934562C16.1935 0.585655 15.8717 0.313508 15.4915 0.156005C15.1112 -0.00149797 14.6913 -0.0365212 14.2901 0.0558117L11.4433 0.709728C11.1516 0.776785 10.8484 0.776785 10.5566 0.709728L7.70982 0.0558117C7.3087 -0.0365212 6.88878 -0.00149797 6.5085 0.156005C6.12822 0.313508 5.80651 0.585655 5.58815 0.934562L4.03648 3.41089C3.87815 3.66423 3.6644 3.87798 3.41107 4.0379L0.934732 5.58956C0.586427 5.80773 0.31468 6.12892 0.15721 6.50855C-0.000258692 6.88818 -0.0356385 7.30741 0.0559819 7.70806L0.709899 10.5581C0.776713 10.8493 0.776713 11.1519 0.709899 11.4431L0.0559819 14.2916C-0.0359946 14.6924 -0.000792826 15.112 0.156693 15.492C0.314179 15.8719 0.586126 16.1934 0.934732 16.4116L3.41107 17.9633C3.6644 18.1216 3.87815 18.3354 4.03807 18.5887L5.58973 21.0651C6.03623 21.7791 6.88807 22.1322 7.70982 21.9438L10.5566 21.2899C10.8484 21.2228 11.1516 21.2228 11.4433 21.2899L14.2917 21.9438C14.6926 22.0358 15.1122 22.0006 15.4921 21.8431C15.8721 21.6856 16.1936 21.4137 16.4118 21.0651L17.9635 18.5887C18.1218 18.3354 18.3356 18.1216 18.5889 17.9633L21.0668 16.4116C21.4154 16.1931 21.6873 15.8713 21.8445 15.491C22.0017 15.1107 22.0365 14.6909 21.944 14.29L21.2917 11.4431C21.2246 11.1514 21.2246 10.8482 21.2917 10.5565L21.9456 7.70806C22.0377 7.30734 22.0027 6.88788 21.8455 6.50795C21.6883 6.12801 21.4167 5.80646 21.0684 5.58798L18.5905 4.03631C18.3375 3.87769 18.1237 3.66388 17.9651 3.41089L16.4118 0.934562ZM15.6154 7.46898C15.7133 7.2889 15.7376 7.07786 15.6831 6.88025C15.6286 6.68265 15.4996 6.51389 15.3231 6.40948C15.1467 6.30507 14.9367 6.27316 14.7373 6.32046C14.5378 6.36775 14.3645 6.49057 14.2537 6.66306L10.1133 13.6709L7.61323 11.2769C7.53906 11.2007 7.45032 11.1403 7.35228 11.0992C7.25425 11.0581 7.14894 11.0371 7.04264 11.0376C6.93634 11.038 6.83121 11.0599 6.73354 11.1019C6.63587 11.1439 6.54766 11.2051 6.47415 11.2819C6.40065 11.3587 6.34337 11.4495 6.30572 11.5489C6.26808 11.6483 6.25084 11.7543 6.25504 11.8605C6.25924 11.9667 6.28479 12.071 6.33017 12.1672C6.37554 12.2633 6.43981 12.3493 6.51915 12.4201L9.73965 15.506C9.82584 15.5884 9.92954 15.6503 10.043 15.687C10.1565 15.7237 10.2768 15.7343 10.3949 15.718C10.513 15.7017 10.626 15.659 10.7253 15.5929C10.8246 15.5269 10.9076 15.4392 10.9683 15.3366L15.6154 7.46898Z" fill="#F2C94C"/>
</svg>
