<svg width="49" height="49" viewBox="0 0 49 49" fill="none" xmlns="http://www.w3.org/2000/svg">
<rect x="0.5" y="0.645996" width="48" height="48" rx="24" fill="white"/>
<path d="M29.775 30.771L29.35 30.346C29.2 30.196 29.021 30.121 28.813 30.121C28.605 30.121 28.4257 30.196 28.275 30.346C28.1243 30.496 28.0493 30.671 28.05 30.871C28.0507 31.071 28.1257 31.246 28.275 31.396L29.25 32.371C29.4 32.521 29.575 32.596 29.775 32.596C29.975 32.596 30.15 32.521 30.3 32.371L32.725 29.996C32.875 29.846 32.95 29.6667 32.95 29.458C32.95 29.2493 32.875 29.0703 32.725 28.921C32.575 28.7717 32.3957 28.6967 32.187 28.696C31.9783 28.6953 31.7993 28.7703 31.65 28.921L29.775 30.771ZM19.5 21.646H29.5C29.7833 21.646 30.021 21.55 30.213 21.358C30.405 21.166 30.5007 20.9287 30.5 20.646C30.4993 20.3633 30.4033 20.126 30.212 19.934C30.0207 19.742 29.7833 19.646 29.5 19.646H19.5C19.2167 19.646 18.9793 19.742 18.788 19.934C18.5967 20.126 18.5007 20.3633 18.5 20.646C18.4993 20.9287 18.5953 21.1663 18.788 21.359C18.9807 21.5517 19.218 21.6473 19.5 21.646ZM30.5 35.646C29.1167 35.646 27.9377 35.1583 26.963 34.183C25.9883 33.2077 25.5007 32.0287 25.5 30.646C25.4993 29.2633 25.987 28.0843 26.963 27.109C27.939 26.1337 29.118 25.646 30.5 25.646C31.882 25.646 33.0613 26.1337 34.038 27.109C35.0147 28.0843 35.502 29.2633 35.5 30.646C35.498 32.0287 35.0103 33.208 34.037 34.184C33.0637 35.16 31.8847 35.6473 30.5 35.646ZM15.5 17.646C15.5 17.096 15.696 16.6253 16.088 16.234C16.48 15.8427 16.9507 15.6467 17.5 15.646H31.5C32.05 15.646 32.521 15.842 32.913 16.234C33.305 16.626 33.5007 17.0967 33.5 17.646V23.021C33.5 23.3043 33.404 23.542 33.212 23.734C33.02 23.926 32.7827 24.0217 32.5 24.021C32.2173 24.0203 31.98 23.9243 31.788 23.733C31.596 23.5417 31.5 23.3043 31.5 23.021V17.646H17.5V31.696H23.575C23.6083 31.946 23.6583 32.196 23.725 32.446C23.7917 32.696 23.8667 32.9377 23.95 33.171C24.0333 33.3543 24 33.5003 23.85 33.609C23.7 33.7177 23.5583 33.705 23.425 33.571L23.35 33.496C23.25 33.396 23.1333 33.346 23 33.346C22.8667 33.346 22.75 33.396 22.65 33.496L21.85 34.296C21.75 34.396 21.6333 34.446 21.5 34.446C21.3667 34.446 21.25 34.396 21.15 34.296L20.35 33.496C20.25 33.396 20.1333 33.346 20 33.346C19.8667 33.346 19.75 33.396 19.65 33.496L18.85 34.296C18.75 34.396 18.6333 34.446 18.5 34.446C18.3667 34.446 18.25 34.396 18.15 34.296L17.35 33.496C17.25 33.396 17.1333 33.346 17 33.346C16.8667 33.346 16.75 33.396 16.65 33.496L15.5 34.646V17.646ZM19.5 29.646H22.875C23.1583 29.646 23.396 29.55 23.588 29.358C23.78 29.166 23.8757 28.9287 23.875 28.646C23.8743 28.3633 23.7783 28.126 23.587 27.934C23.3957 27.742 23.1583 27.646 22.875 27.646H19.5C19.2167 27.646 18.9793 27.742 18.788 27.934C18.5967 28.126 18.5007 28.3633 18.5 28.646C18.4993 28.9287 18.5953 29.1663 18.788 29.359C18.9807 29.5517 19.218 29.6473 19.5 29.646ZM19.5 25.646H26.05C26.3333 25.646 26.571 25.55 26.763 25.358C26.955 25.166 27.0507 24.9287 27.05 24.646C27.0493 24.3633 26.9533 24.126 26.762 23.934C26.5707 23.742 26.3333 23.646 26.05 23.646H19.5C19.2167 23.646 18.9793 23.742 18.788 23.934C18.5967 24.126 18.5007 24.3633 18.5 24.646C18.4993 24.9287 18.5953 25.1663 18.788 25.359C18.9807 25.5517 19.218 25.6473 19.5 25.646Z" fill="#23262F"/>
</svg>
