<svg width="25" height="25" viewBox="0 0 25 25" fill="none" xmlns="http://www.w3.org/2000/svg">
<g clip-path="url(#clip0_3277_9734)">
<path d="M12.2666 24.75C18.894 24.75 24.2666 19.3774 24.2666 12.75C24.2666 6.12258 18.894 0.75 12.2666 0.75C5.63918 0.75 0.266602 6.12258 0.266602 12.75C0.266602 19.3774 5.63918 24.75 12.2666 24.75Z" fill="#F7931A"/>
<path d="M17.6584 11.265C17.8939 9.693 16.6961 8.84775 15.0596 8.28375L15.5906 6.15375L14.2946 5.83125L13.7771 7.905C13.4366 7.8195 13.0871 7.74 12.7384 7.6605L13.2596 5.57325L11.9636 5.25L11.4326 7.37925C11.1506 7.31475 10.8731 7.25175 10.6046 7.18425L10.6061 7.1775L8.8181 6.73125L8.4731 8.11575C8.4731 8.11575 9.43535 8.33625 9.4151 8.34975C9.9401 8.481 10.0346 8.82825 10.0189 9.10425L9.41435 11.5305C9.45035 11.5395 9.49685 11.553 9.54935 11.5732L9.4121 11.5395L8.5646 14.9385C8.5001 15.0975 8.33735 15.3367 7.96985 15.246C7.98335 15.2647 7.02785 15.0112 7.02785 15.0112L6.38435 16.4948L8.07185 16.9155C8.38535 16.9943 8.69285 17.0767 8.9951 17.154L8.45885 19.308L9.7541 19.6305L10.2851 17.5005C10.6391 17.5957 10.9826 17.6842 11.3186 17.7682L10.7891 19.8892L12.0851 20.2118L12.6214 18.0623C14.8324 18.4808 16.4944 18.312 17.1941 16.3125C17.7581 14.703 17.1664 13.7738 16.0031 13.1685C16.8506 12.9735 17.4881 12.4163 17.6584 11.265ZM14.6959 15.4185C14.2961 17.0288 11.5849 16.158 10.7059 15.9398L11.4184 13.086C12.2974 13.3057 15.1151 13.74 14.6959 15.4185ZM15.0971 11.2418C14.7319 12.7065 12.4759 11.9618 11.7446 11.7795L12.3896 9.192C13.1209 9.37425 15.4781 9.714 15.0971 11.2418Z" fill="white"/>
</g>
<defs>
<clipPath id="clip0_3277_9734">
<rect width="24" height="24" fill="white" transform="translate(0.266602 0.75)"/>
</clipPath>
</defs>
</svg>
