<svg width="45" height="45" viewBox="0 0 45 45" fill="none" xmlns="http://www.w3.org/2000/svg">
<rect x="0.462891" y="0.624268" width="44" height="44" rx="22" fill="#777E91"/>
<path d="M27.4628 21.4294C27.4628 21.0834 27.4628 20.9104 27.5148 20.7564C27.6658 20.3084 28.0648 20.1354 28.4648 19.9534C28.9128 19.7484 29.1368 19.6464 29.3598 19.6284C29.6118 19.6084 29.8648 19.6624 30.0808 19.7834C30.3668 19.9434 30.5668 20.2494 30.7708 20.4974C31.7138 21.6434 32.1858 22.2164 32.3578 22.8474C32.4978 23.3574 32.4978 23.8914 32.3578 24.4004C32.1068 25.3224 31.3118 26.0944 30.7228 26.8104C30.4218 27.1754 30.2708 27.3584 30.0808 27.4654C29.8611 27.5872 29.6102 27.6412 29.3598 27.6204C29.1368 27.6024 28.9128 27.5004 28.4638 27.2954C28.0638 27.1134 27.6658 26.9404 27.5148 26.4924C27.4628 26.3384 27.4628 26.1654 27.4628 25.8194V21.4294ZM17.4628 21.4294C17.4628 20.9934 17.4508 20.6024 17.0988 20.2964C16.9708 20.1854 16.8008 20.1084 16.4618 19.9534C16.0128 19.7494 15.7888 19.6464 15.5658 19.6284C14.8988 19.5744 14.5398 20.0304 14.1558 20.4984C13.2118 21.6434 12.7398 22.2164 12.5668 22.8484C12.4276 23.3567 12.4276 23.8931 12.5668 24.4014C12.8188 25.3224 13.6148 26.0954 14.2028 26.8104C14.5738 27.2604 14.9288 27.6714 15.5658 27.6204C15.7888 27.6024 16.0128 27.5004 16.4618 27.2954C16.8018 27.1414 16.9708 27.0634 17.0988 26.9524C17.4508 26.6464 17.4628 26.2554 17.4628 25.8204V21.4294Z" stroke="white" stroke-width="1.5" stroke-linecap="round" stroke-linejoin="round"/>
<path d="M15.4629 19.6243C15.4629 16.3103 18.5969 13.6243 22.4629 13.6243C26.3289 13.6243 29.4629 16.3103 29.4629 19.6243M29.4629 27.6243V28.4243C29.4629 30.1913 27.6729 31.6243 25.4629 31.6243H23.4629" stroke="white" stroke-width="1.5" stroke-linecap="round" stroke-linejoin="round"/>
</svg>
