<svg width="22" height="23" viewBox="0 0 22 23" fill="none" xmlns="http://www.w3.org/2000/svg">
<path fill-rule="evenodd" clip-rule="evenodd" d="M0 11.4102C0 5.33516 4.925 0.410156 11 0.410156C17.075 0.410156 22 5.33516 22 11.4102C22 17.4852 17.075 22.4102 11 22.4102C4.925 22.4102 0 17.4852 0 11.4102ZM11 20.4102C9.8181 20.4102 8.64778 20.1774 7.55585 19.7251C6.46392 19.2728 5.47177 18.6098 4.63604 17.7741C3.80031 16.9384 3.13738 15.9462 2.68508 14.8543C2.23279 13.7624 2 12.5921 2 11.4102C2 10.2283 2.23279 9.05794 2.68508 7.96601C3.13738 6.87407 3.80031 5.88192 4.63604 5.0462C5.47177 4.21047 6.46392 3.54753 7.55585 3.09524C8.64778 2.64295 9.8181 2.41016 11 2.41016C13.3869 2.41016 15.6761 3.35837 17.364 5.0462C19.0518 6.73402 20 9.02321 20 11.4102C20 13.7971 19.0518 16.0863 17.364 17.7741C15.6761 19.4619 13.3869 20.4102 11 20.4102Z" fill="#777E91"/>
</svg>
