<svg width="24" height="24" viewBox="0 0 24 24" fill="none" xmlns="http://www.w3.org/2000/svg">
<rect width="23" height="23" transform="translate(0.5 0.430664)" fill="white"/>
<path d="M2.4165 19.5974H21.5832V21.5141H2.4165V19.5974ZM4.33317 11.9307H6.24984V18.6391H4.33317V11.9307ZM9.12484 11.9307H11.0415V18.6391H9.12484V11.9307ZM12.9582 11.9307H14.8748V18.6391H12.9582V11.9307ZM17.7498 11.9307H19.6665V18.6391H17.7498V11.9307ZM2.4165 7.13908L11.9998 2.34741L21.5832 7.13908V10.9724H2.4165V7.13908ZM11.9998 8.09741C12.254 8.09741 12.4978 7.99645 12.6775 7.81672C12.8572 7.637 12.9582 7.39324 12.9582 7.13908C12.9582 6.88491 12.8572 6.64116 12.6775 6.46144C12.4978 6.28171 12.254 6.18075 11.9998 6.18075C11.7457 6.18075 11.5019 6.28171 11.3222 6.46144C11.1425 6.64116 11.0415 6.88491 11.0415 7.13908C11.0415 7.39324 11.1425 7.637 11.3222 7.81672C11.5019 7.99645 11.7457 8.09741 11.9998 8.09741Z" fill="black"/>
</svg>
