<svg width="32" height="33" viewBox="0 0 32 33" fill="none" xmlns="http://www.w3.org/2000/svg">
<g clip-path="url(#clip0_202_74883)">
<path d="M22.1653 19.4908L25.7893 23.1121L15.9853 32.9161L6.18133 23.1134L9.804 19.4908L15.9853 25.7041L22.1653 19.4908ZM28.348 13.3094L32 16.9308L28.38 20.5521L24.7573 16.9308L28.348 13.3094ZM15.9853 13.3094L19.6067 16.8988L15.984 20.5214L12.3627 16.9308L15.9853 13.3094ZM3.62133 13.3094L7.21333 16.9308L3.624 20.5201L0 16.9308L3.62133 13.3094ZM15.9867 0.946777L25.7867 10.7174L22.164 14.3374L15.9867 8.15744L9.80533 14.3708L6.18267 10.7494L15.9867 0.946777Z" fill="#23262F"/>
</g>
<defs>
<clipPath id="clip0_202_74883">
<rect width="32" height="32" fill="white" transform="translate(0 0.930664)"/>
</clipPath>
</defs>
</svg>
