<svg width="32" height="33" viewBox="0 0 32 33" fill="none" xmlns="http://www.w3.org/2000/svg">
<path d="M24.3598 9.50408H23.8398C23.3998 6.95741 21.3198 5.01074 18.8265 5.01074H5.71984C4.03984 5.01074 2.6665 6.47741 2.6665 8.26408C2.6665 8.38408 2.69317 8.49074 2.7065 8.61074C2.69317 8.66408 2.6665 8.71741 2.6665 8.78408V23.8507C2.6665 26.5974 4.9065 28.8374 7.63984 28.8374H24.3598C27.0932 28.8374 29.3332 26.5974 29.3332 23.8507V14.4774C29.3332 11.7307 27.0932 9.50408 24.3598 9.50408ZM23.6132 20.8507C22.6932 20.8507 21.9332 20.1041 21.9332 19.1707C21.9332 18.2374 22.6932 17.4774 23.6132 17.4774C24.5465 17.4774 25.3065 18.2374 25.3065 19.1707C25.3065 20.1041 24.5465 20.8507 23.6132 20.8507ZM5.71984 7.01074H18.8265C20.2265 7.01074 21.3998 8.06408 21.7865 9.50408H5.71984C5.13317 9.50408 4.6665 8.94408 4.6665 8.26408C4.6665 7.57074 5.13317 7.01074 5.71984 7.01074Z" fill="#23262F"/>
</svg>
