<svg width="25" height="26" viewBox="0 0 25 26" fill="none" xmlns="http://www.w3.org/2000/svg">
<path d="M20.2096 4.2915H4.7738V18.3301H20.2096V4.2915Z" fill="white"/>
<path fill-rule="evenodd" clip-rule="evenodd" d="M24.9917 12.5083C24.9917 19.4073 19.399 25 12.5 25C5.60102 25 0.00830078 19.4073 0.00830078 12.5083C0.00830078 5.60932 5.60102 0.0166016 12.5 0.0166016C19.399 0.0166016 24.9917 5.60932 24.9917 12.5083ZM8.9602 17.4793H6.53591C6.0265 17.4793 5.77487 17.4793 5.62144 17.3812C5.45572 17.2738 5.35446 17.0958 5.34218 16.8993C5.33297 16.7184 5.4588 16.4973 5.71043 16.0554L11.6963 5.50454C11.951 5.05651 12.0799 4.83249 12.2425 4.74964C12.4174 4.66065 12.6261 4.66065 12.801 4.74964C12.9637 4.83249 13.0926 5.05651 13.3473 5.50454L14.5778 7.65265L14.5841 7.66361C14.8592 8.14426 14.9987 8.38801 15.0596 8.64383C15.1271 8.92309 15.1271 9.21768 15.0596 9.49694C14.9982 9.75471 14.8601 10.0002 14.5809 10.4881L11.4367 16.0462L11.4285 16.0605C11.1516 16.5451 11.0113 16.7907 10.8168 16.976C10.605 17.1786 10.3503 17.3258 10.0711 17.4088C9.81637 17.4793 9.53099 17.4793 8.9602 17.4793ZM15.0823 17.4793H18.556C19.0685 17.4793 19.3263 17.4793 19.4799 17.3782C19.6455 17.2708 19.7498 17.0896 19.7591 16.8933C19.7679 16.7182 19.6449 16.5058 19.4037 16.0896C19.3954 16.0754 19.387 16.061 19.3786 16.0463L17.6385 13.0697L17.6187 13.0361C17.3742 12.6227 17.2508 12.4139 17.0923 12.3332C16.9175 12.2442 16.7117 12.2442 16.5369 12.3332C16.3773 12.416 16.2484 12.6339 15.9937 13.0727L14.2599 16.0494L14.254 16.0596C14.0001 16.4978 13.8733 16.7167 13.8825 16.8963C13.8947 17.0928 13.996 17.2738 14.1617 17.3812C14.3121 17.4793 14.5698 17.4793 15.0823 17.4793Z" fill="#E84142"/>
</svg>
