<svg width="28" height="35" viewBox="0 0 28 35" fill="none" xmlns="http://www.w3.org/2000/svg">
<path d="M26.7137 9.21348C26.9363 9.43613 27.0625 9.73672 27.0625 10.0521V32.9375C27.0625 33.5943 26.5318 34.125 25.875 34.125H2.125C1.46816 34.125 0.9375 33.5943 0.9375 32.9375V2.0625C0.9375 1.40566 1.46816 0.875 2.125 0.875H17.8854C18.2008 0.875 18.5051 1.00117 18.7277 1.22383L26.7137 9.21348ZM24.3238 10.5977L17.3398 3.61367V10.5977H24.3238ZM18.4984 22.1483C17.9351 22.1298 17.3361 22.1732 16.6559 22.2582C15.7542 21.7019 15.147 20.9378 14.7158 19.8153L14.7555 19.6527L14.8016 19.4605C14.9611 18.7877 15.0469 18.2967 15.0725 17.8017C15.0918 17.428 15.071 17.0833 15.0046 16.7638C14.8821 16.0739 14.3941 15.6705 13.7792 15.6456C13.2059 15.6223 12.6789 15.9425 12.5442 16.4387C12.3249 17.241 12.4533 18.2967 12.9183 20.0973C12.326 21.5093 11.5434 23.1647 11.0183 24.088C10.3173 24.4495 9.77139 24.7783 9.31271 25.1427C8.70783 25.624 8.33006 26.1187 8.22615 26.6382C8.17568 26.879 8.25176 27.1937 8.42506 27.4516C8.62174 27.744 8.91787 27.934 9.27301 27.9615C10.1692 28.0309 11.2706 27.1069 12.4867 25.0202C12.6088 24.9794 12.7379 24.9363 12.8956 24.8829L13.3372 24.7337C13.6167 24.6395 13.8193 24.5719 14.0197 24.507C14.888 24.2242 15.5449 24.0457 16.1423 23.944C17.1806 24.4999 18.3808 24.8644 19.189 24.8644C19.8562 24.8644 20.3071 24.5185 20.47 23.9741C20.6129 23.4961 20.4997 22.9417 20.1924 22.6352C19.8748 22.3231 19.2907 22.1739 18.4984 22.1483ZM9.29564 26.9139V26.9005L9.30047 26.8879C9.3548 26.7476 9.4245 26.6137 9.50828 26.4886C9.66711 26.2445 9.88568 25.9877 10.1566 25.7142C10.3021 25.5676 10.4535 25.4247 10.6312 25.2644C10.6709 25.2288 10.9247 25.0028 10.9722 24.9582L11.3868 24.5723L11.0854 25.0521C10.6282 25.781 10.2148 26.3057 9.86082 26.6478C9.73057 26.774 9.6159 26.8668 9.52312 26.9265C9.4925 26.947 9.46008 26.9646 9.42627 26.9792C9.41105 26.9855 9.3977 26.9892 9.38434 26.9904C9.37023 26.9921 9.35591 26.9902 9.34277 26.9848C9.32881 26.9789 9.31688 26.9691 9.30849 26.9565C9.30011 26.9439 9.29564 26.9291 9.29564 26.9139ZM13.9692 18.8137L13.8853 18.9621L13.8334 18.7996C13.7183 18.4348 13.6337 17.8852 13.6104 17.3894C13.5836 16.8254 13.6285 16.4869 13.8067 16.4869C14.0568 16.4869 14.1714 16.8877 14.1804 17.4907C14.1885 18.0206 14.105 18.5721 13.9688 18.8137H13.9692ZM13.7536 20.9831L13.8104 20.8328L13.8879 20.9738C14.3217 21.762 14.8847 22.4196 15.5037 22.8779L15.6373 22.9766L15.4744 23.01C14.8684 23.1354 14.3039 23.3239 13.5321 23.6353C13.6126 23.6026 12.7297 23.9641 12.5063 24.0498L12.3115 24.1244L12.4154 23.9433C12.8737 23.1454 13.2971 22.1873 13.7532 20.9831H13.7536ZM19.6028 23.813C19.3111 23.9281 18.6832 23.8253 17.5777 23.3533L17.2972 23.2338L17.6015 23.2115C18.4661 23.1473 19.0784 23.1948 19.4354 23.3254C19.5876 23.3811 19.6889 23.4512 19.7338 23.5314C19.7574 23.5693 19.7653 23.615 19.7559 23.6587C19.7465 23.7024 19.7205 23.7407 19.6833 23.7655C19.6597 23.7863 19.6324 23.8024 19.6028 23.813Z" fill="#777E91"/>
</svg>
