<svg width="17" height="20" viewBox="0 0 17 20" fill="none" xmlns="http://www.w3.org/2000/svg">
<path d="M2.27734 20C1.72734 20 1.25668 19.8043 0.865344 19.413C0.47401 19.0217 0.27801 18.5507 0.277344 18V2C0.277344 1.45 0.473344 0.979333 0.865344 0.588C1.25734 0.196667 1.72801 0.000666667 2.27734 0H11.2773L16.2773 5V18C16.2773 18.55 16.0817 19.021 15.6903 19.413C15.299 19.805 14.828 20.0007 14.2773 20H2.27734ZM2.27734 18H14.2773V6H10.2773V2H2.27734V18ZM8.27734 17C9.39401 17 10.34 16.6083 11.1153 15.825C11.8907 15.0417 12.278 14.1 12.2773 13V9H10.2773V13C10.2773 13.55 10.0857 14.021 9.70234 14.413C9.31901 14.805 8.84401 15.0007 8.27734 15C7.72734 15 7.25668 14.8043 6.86534 14.413C6.47401 14.0217 6.27801 13.5507 6.27734 13V7.5C6.27734 7.35 6.32734 7.229 6.42734 7.137C6.52734 7.045 6.64401 6.99933 6.77734 7C6.92734 7 7.04834 7.046 7.14034 7.138C7.23234 7.23 7.27801 7.35067 7.27734 7.5V13H9.27734V7.5C9.27734 6.8 9.03568 6.20833 8.55234 5.725C8.06901 5.24167 7.47734 5 6.77734 5C6.07734 5 5.48568 5.24167 5.00234 5.725C4.51901 6.20833 4.27734 6.8 4.27734 7.5V13C4.27734 14.1 4.66901 15.0417 5.45234 15.825C6.23568 16.6083 7.17734 17 8.27734 17Z" fill="#777E91"/>
</svg>
